<?xml version="1.0" encoding="utf-8"?><!-- Uploaded to: SVG Repo, www.svgrepo.com, Generator: SVG Repo Mixer Tools -->
<svg width="800px" height="800px" viewBox="0 0 20 15" fill="none" xmlns="http://www.w3.org/2000/svg">
<path d="M18 14.75H2.00003C1.73942 14.7581 1.47985 14.7135 1.23685 14.619C0.993841 14.5245 0.772371 14.382 0.585691 14.2C0.399001 14.018 0.250921 13.8002 0.150291 13.5596C0.0496708 13.3191 -0.00143917 13.0607 3.08314e-05 12.8V7.27C0.0130808 6.7483 0.229541 6.2523 0.603201 5.888C0.976871 5.5237 1.47815 5.3198 2.00003 5.32H4.87003C4.92913 5.32 4.98764 5.3084 5.04224 5.2858C5.09683 5.2631 5.14644 5.23 5.18823 5.1882C5.23001 5.1464 5.26316 5.0968 5.28578 5.0422C5.30839 4.98762 5.32003 4.92911 5.32003 4.87001V2.87001C5.33271 2.35683 5.54222 1.86817 5.90521 1.50519C6.26819 1.14221 6.75685 0.93269 7.27003 0.92001H12.83C13.3604 0.92001 13.8691 1.13073 14.2442 1.5058C14.6193 1.88087 14.83 2.38958 14.83 2.92001V7.39C14.83 7.5094 14.8774 7.6238 14.9618 7.7082C15.0462 7.7926 15.1607 7.84 15.28 7.84H18C18.52 7.8556 19.0134 8.0732 19.3756 8.4466C19.7378 8.82 19.9402 9.3198 19.94 9.84V12.8C19.9413 13.0556 19.8921 13.309 19.7952 13.5455C19.6983 13.782 19.5556 13.9971 19.3753 14.1783C19.1951 14.3595 18.9807 14.5033 18.7447 14.6014C18.5087 14.6995 18.2556 14.75 18 14.75ZM2.00003 6.82C1.88242 6.8226 1.77052 6.8712 1.68828 6.9553C1.60604 7.0394 1.56 7.1524 1.56003 7.27V12.8C1.56 12.9176 1.60604 13.0306 1.68828 13.1147C1.77052 13.1988 1.88242 13.2474 2.00003 13.25H18C18.1176 13.2474 18.2295 13.1988 18.3118 13.1147C18.394 13.0306 18.44 12.9176 18.44 12.8V9.74C18.44 9.6224 18.394 9.5094 18.3118 9.4253C18.2295 9.3412 18.1176 9.2926 18 9.29H15.23C14.7081 9.2902 14.2068 9.0863 13.8332 8.722C13.4595 8.3577 13.243 7.8617 13.23 7.34V2.87001C13.23 2.75067 13.1826 2.63621 13.0982 2.55182C13.0138 2.46742 12.8993 2.42001 12.78 2.42001H7.27003C7.15068 2.42001 7.03622 2.46742 6.95183 2.55182C6.86744 2.63621 6.82003 2.75067 6.82003 2.87001V4.87001C6.82019 5.3919 6.61636 5.8932 6.25203 6.2668C5.8877 6.6405 5.39175 6.857 4.87003 6.87L2.00003 6.82Z" fill="#C0D0E7"/>
</svg>


