<svg width="150" height="150" viewBox="0 0 150 150" fill="none" xmlns="http://www.w3.org/2000/svg">
<path fill-rule="evenodd" clip-rule="evenodd" d="M21.5875 0L31.4 39.25H11.775L21.5875 0ZM104.012 60.8375C105.574 60.8375 107.071 60.2172 108.176 59.1131C109.28 58.009 109.9 56.5115 109.9 54.95C109.9 53.3885 109.28 51.891 108.176 50.7869C107.071 49.6828 105.574 49.0625 104.012 49.0625C102.451 49.0625 100.954 49.6828 99.8494 50.7869C98.7453 51.891 98.125 53.3885 98.125 54.95C98.125 56.5115 98.7453 58.009 99.8494 59.1131C100.954 60.2172 102.451 60.8375 104.012 60.8375ZM0 141.3H78.5V149.15H0V141.3ZM0 125.6H60.8375V133.45H0V125.6ZM39.25 94.2H78.5V102.05H39.25V94.2ZM0 109.9H78.5V117.75H0V109.9ZM123.637 60.8375C125.199 60.8375 126.696 60.2172 127.801 59.1131C128.905 58.009 129.525 56.5115 129.525 54.95C129.525 53.3885 128.905 51.891 127.801 50.7869C126.696 49.6828 125.199 49.0625 123.637 49.0625C122.076 49.0625 120.579 49.6828 119.474 50.7869C118.37 51.891 117.75 53.3885 117.75 54.95C117.75 56.5115 118.37 58.009 119.474 59.1131C120.579 60.2172 122.076 60.8375 123.637 60.8375ZM143.262 60.8375C144.824 60.8375 146.321 60.2172 147.426 59.1131C148.53 58.009 149.15 56.5115 149.15 54.95C149.15 53.3885 148.53 51.891 147.426 50.7869C146.321 49.6828 144.824 49.0625 143.262 49.0625C141.701 49.0625 140.204 49.6828 139.099 50.7869C137.995 51.891 137.375 53.3885 137.375 54.95C137.375 56.5115 137.995 58.009 139.099 59.1131C140.204 60.2172 141.701 60.8375 143.262 60.8375ZM104.012 80.4625C105.574 80.4625 107.071 79.8422 108.176 78.7381C109.28 77.634 109.9 76.1365 109.9 74.575C109.9 73.0135 109.28 71.516 108.176 70.4119C107.071 69.3078 105.574 68.6875 104.012 68.6875C102.451 68.6875 100.954 69.3078 99.8494 70.4119C98.7453 71.516 98.125 73.0135 98.125 74.575C98.125 76.1365 98.7453 77.634 99.8494 78.7381C100.954 79.8422 102.451 80.4625 104.012 80.4625ZM123.637 80.4625C125.199 80.4625 126.696 79.8422 127.801 78.7381C128.905 77.634 129.525 76.1365 129.525 74.575C129.525 73.0135 128.905 71.516 127.801 70.4119C126.696 69.3078 125.199 68.6875 123.637 68.6875C122.076 68.6875 120.579 69.3078 119.474 70.4119C118.37 71.516 117.75 73.0135 117.75 74.575C117.75 76.1365 118.37 77.634 119.474 78.7381C120.579 79.8422 122.076 80.4625 123.637 80.4625ZM143.262 80.4625C144.824 80.4625 146.321 79.8422 147.426 78.7381C148.53 77.634 149.15 76.1365 149.15 74.575C149.15 73.0135 148.53 71.516 147.426 70.4119C146.321 69.3078 144.824 68.6875 143.262 68.6875C141.701 68.6875 140.204 69.3078 139.099 70.4119C137.995 71.516 137.375 73.0135 137.375 74.575C137.375 76.1365 137.995 77.634 139.099 78.7381C140.204 79.8422 141.701 80.4625 143.262 80.4625ZM84.3875 80.4625C85.949 80.4625 87.4465 79.8422 88.5506 78.7381C89.6547 77.634 90.275 76.1365 90.275 74.575C90.275 73.0135 89.6547 71.516 88.5506 70.4119C87.4465 69.3078 85.949 68.6875 84.3875 68.6875C82.826 68.6875 81.3285 69.3078 80.2244 70.4119C79.1203 71.516 78.5 73.0135 78.5 74.575C78.5 76.1365 79.1203 77.634 80.2244 78.7381C81.3285 79.8422 82.826 80.4625 84.3875 80.4625ZM29.4375 64.7625C29.4375 62.1601 28.4037 59.6642 26.5635 57.824C24.7233 55.9838 22.2274 54.95 19.625 54.95C17.0226 54.95 14.5267 55.9838 12.6865 57.824C10.8463 59.6642 9.8125 62.1601 9.8125 64.7625H29.4375ZM49.0625 64.7625C49.0625 67.3649 48.0287 69.8608 46.1885 71.701C44.3483 73.5412 41.8524 74.575 39.25 74.575C36.6476 74.575 34.1517 73.5412 32.3115 71.701C30.4713 69.8608 29.4375 67.3649 29.4375 64.7625H49.0625ZM109.9 9.8125C109.9 7.21006 108.866 4.71422 107.026 2.87401C105.186 1.03381 102.69 0 100.088 0C97.4851 0 94.9892 1.03381 93.149 2.87401C91.3088 4.71422 90.275 7.21006 90.275 9.8125H109.9ZM129.525 9.8125C129.525 12.4149 128.491 14.9108 126.651 16.751C124.811 18.5912 122.315 19.625 119.713 19.625C117.11 19.625 114.614 18.5912 112.774 16.751C110.934 14.9108 109.9 12.4149 109.9 9.8125H129.525ZM123.637 100.088C125.199 100.088 126.696 99.4672 127.801 98.3631C128.905 97.259 129.525 95.7615 129.525 94.2C129.525 92.6385 128.905 91.141 127.801 90.0369C126.696 88.9328 125.199 88.3125 123.637 88.3125C122.076 88.3125 120.579 88.9328 119.474 90.0369C118.37 91.141 117.75 92.6385 117.75 94.2C117.75 95.7615 118.37 97.259 119.474 98.3631C120.579 99.4672 122.076 100.088 123.637 100.088ZM143.262 100.088C144.824 100.088 146.321 99.4672 147.426 98.3631C148.53 97.259 149.15 95.7615 149.15 94.2C149.15 92.6385 148.53 91.141 147.426 90.0369C146.321 88.9328 144.824 88.3125 143.262 88.3125C141.701 88.3125 140.204 88.9328 139.099 90.0369C137.995 91.141 137.375 92.6385 137.375 94.2C137.375 95.7615 137.995 97.259 139.099 98.3631C140.204 99.4672 141.701 100.088 143.262 100.088ZM41.2125 0L51.025 39.25H31.4L41.2125 0ZM125.6 125.6V117.75H117.75V125.6H109.9V133.45H117.75V141.3H125.6V133.45H133.45V125.6H125.6ZM70.65 25.5125H78.5V33.3625H70.65V25.5125ZM78.5 33.3625H86.35V41.2125H78.5V33.3625ZM70.65 41.2125H78.5V49.0625H70.65V41.2125ZM86.35 25.5125H94.2V33.3625H86.35V25.5125Z" fill="#1B1F3B" fill-opacity="0.5"/>
</svg>
